<?xml version="1.0" encoding="utf-8"?>
<!-- Generator: Adobe Illustrator 21.1.0, SVG Export Plug-In . SVG Version: 6.00 Build 0)  -->
<svg version="1.1" xmlns="http://www.w3.org/2000/svg" xmlns:xlink="http://www.w3.org/1999/xlink" x="0px" y="0px"
	 viewBox="0 0 1500 900" style="enable-background:new 0 0 1500 900;" xml:space="preserve">
<style type="text/css">
	.st0{display:none;}
	.st1{display:inline;fill:#F90B0B;}
	.st2{fill:none;stroke:url(#SVGID_1_);stroke-width:3.3717;stroke-miterlimit:10;}
	.st3{fill:none;stroke:url(#SVGID_2_);stroke-width:3.654;stroke-miterlimit:10;}
	.st4{fill:none;stroke:url(#SVGID_3_);stroke-width:3.654;stroke-miterlimit:10;}
	.st5{fill:none;stroke:url(#SVGID_4_);stroke-width:3.654;stroke-miterlimit:10;}
	.st6{fill:none;stroke:url(#SVGID_5_);stroke-width:5.4592;stroke-miterlimit:10;}
	.st7{fill:none;stroke:url(#SVGID_6_);stroke-width:3.654;stroke-miterlimit:10;}
	.st8{fill:#FCFCFC;}
</style>
<g id="Слой_3" class="st0">
	<ellipse class="st1" cx="750" cy="431" rx="823.8" ry="771"/>
</g>
<g id="Слой_2">
	<g>
		<g>
			<linearGradient id="SVGID_1_" gradientUnits="userSpaceOnUse" x1="548.1903" y1="485.5839" x2="951.8091" y2="414.415">
				<stop  offset="0.7426" style="stop-color:#FFFFFF"/>
				<stop  offset="1" style="stop-color:#FFFFFF;stop-opacity:0"/>
			</linearGradient>
			<path class="st2" d="M922.9,345c19.3,30.5,30.4,66.5,30.4,105c0,110.3-91,199.8-203.3,199.8S546.7,560.3,546.7,450
				c0-110.4,91-199.8,203.3-199.8c45.1,0,86.8,14.4,120.5,38.9"/>
		</g>
		<linearGradient id="SVGID_2_" gradientUnits="userSpaceOnUse" x1="865.2094" y1="297.7095" x2="888.837" y2="293.5433">
			<stop  offset="0" style="stop-color:#FFFFFF"/>
			<stop  offset="1" style="stop-color:#FFFFFF"/>
		</linearGradient>
		<circle class="st3" cx="877" cy="295.6" r="10.2"/>
	</g>
	<g>
		<g>
			
				<linearGradient id="SVGID_3_" gradientUnits="userSpaceOnUse" x1="460.1491" y1="506.0056" x2="1024.9135" y2="406.4224" gradientTransform="matrix(0.9858 -0.1678 0.1678 0.9858 -58.5646 124.8721)">
				<stop  offset="0.7426" style="stop-color:#FFFFFF"/>
				<stop  offset="1" style="stop-color:#FFFFFF;stop-opacity:0"/>
			</linearGradient>
			<path class="st4" d="M535.7,635.8c-33.8-37.6-57.6-84.7-66.7-138c-26-152.5,78.8-297.5,234-323.9s302,75.8,328,228.2
				c26,152.5-78.8,297.5-234,323.9c-62.4,10.6-123.3,0.5-175.7-25.4"/>
		</g>
		
			<linearGradient id="SVGID_4_" gradientUnits="userSpaceOnUse" x1="555.3694" y1="675.8928" x2="578.9969" y2="671.7266" gradientTransform="matrix(0.9858 -0.1678 0.1678 0.9858 -58.5646 124.8721)">
			<stop  offset="0" style="stop-color:#FFFFFF"/>
			<stop  offset="1" style="stop-color:#FFFFFF"/>
		</linearGradient>
		
			<ellipse transform="matrix(0.9858 -0.1678 0.1678 0.9858 -107.7567 112.8296)" class="st5" cx="613.7" cy="693.9" rx="10.2" ry="10.2"/>
	</g>
	<g>
		<g>
			
				<linearGradient id="SVGID_5_" gradientUnits="userSpaceOnUse" x1="320.6479" y1="530.6033" x2="1164.4142" y2="381.8245" gradientTransform="matrix(0.9858 -0.1678 0.1678 0.9858 -58.5646 124.8721)">
				<stop  offset="0.7426" style="stop-color:#FFFFFF"/>
				<stop  offset="1" style="stop-color:#FFFFFF;stop-opacity:0"/>
			</linearGradient>
			<path class="st6" d="M429.8,727.6c-50.5-56.2-86.1-126.6-99.6-206.2C291.4,293.7,447.9,77,679.8,37.5s451.2,113.2,490,341
				c38.8,227.8-117.7,444.5-349.6,483.9c-93.2,15.9-184.3,0.7-262.5-37.9"/>
		</g>
		
			<linearGradient id="SVGID_6_" gradientUnits="userSpaceOnUse" x1="469.6921" y1="787.3738" x2="493.3198" y2="783.2076" gradientTransform="matrix(0.9858 -0.1678 0.1678 0.9858 -58.5646 124.8721)">
			<stop  offset="0" style="stop-color:#FFFFFF"/>
			<stop  offset="1" style="stop-color:#FFFFFF"/>
		</linearGradient>
		
			<ellipse transform="matrix(0.9858 -0.1678 0.1678 0.9858 -129.5464 103.5573)" class="st7" cx="547.9" cy="818.2" rx="10.2" ry="10.2"/>
	</g>
	<g>
		<path class="st8" d="M765.5,497.2h-33.2c-0.1-4.8-0.1-7.7-0.1-8.7c0-10.8,1.8-19.6,5.3-26.6c3.6-7,10.7-14.8,21.4-23.5
			c10.7-8.7,17.1-14.4,19.2-17.1c3.2-4.3,4.8-8.9,4.8-14.1c0-7.1-2.8-13.2-8.5-18.3c-5.7-5.1-13.4-7.6-23-7.6
			c-9.3,0-17.1,2.7-23.3,8c-6.3,5.3-10.6,13.4-12.9,24.2l-33.6-4.2c1-15.6,7.6-28.8,19.9-39.6c12.3-10.9,28.4-16.3,48.4-16.3
			c21,0,37.8,5.5,50.2,16.5c12.4,11,18.6,23.8,18.6,38.4c0,8.1-2.3,15.7-6.8,22.9c-4.6,7.2-14.3,17-29.3,29.5
			c-7.7,6.4-12.5,11.6-14.4,15.5C766.2,480.2,765.3,487.2,765.5,497.2z M732.3,546.5v-36.6h36.6v36.6H732.3z"/>
	</g>
</g>
</svg>
